<svg id="Capa_1" enable-background="new 0 0 128 128" height="512" viewBox="0 0 128 128" width="512" xmlns="http://www.w3.org/2000/svg"><g><path d="m106.955 10.514-10-10c-.33-.331-.78-.517-1.248-.514h-63.414c-.464 0-.909.184-1.237.512l-10 10c-.107.107-.865.979-.276 2.109l29.92 51.848v9.8c-13.93 7.344-19.269 24.59-11.926 38.52s24.59 19.269 38.52 11.926c13.93-7.344 19.269-24.59 11.926-38.52-2.682-5.087-6.839-9.244-11.926-11.926v-9.8l29.934-51.847c.593-1.196-.166-2.001-.273-2.108zm-73.937-7.014h61.964l6.506 6.5h-74.976zm58.119 10-27.137 47-27.137-47zm-58.315 0 28.147 48.75h-7.506l-28.147-48.75zm56.191 85.983c.002 13.814-11.195 25.015-25.009 25.017s-25.015-11.195-25.017-25.009c0-.003 0-.005 0-.008.113-13.649 11.198-25.124 25.013-25.013 12.861-.226 25.291 11.105 25.013 25.013zm-17.2-27.415c-5.791-1.638-11.951-1.418-17.61.63v-6.948h19.597v6.95c-.508-.163-.766-.268-1.987-.632zm2.724-9.818h-7.506l28.148-48.75h7.5z"/><path d="m69.921 90.9-4.352-8.817c-.427-.867-1.475-1.223-2.342-.796-.346.17-.626.45-.796.796l-4.352 8.817-9.731 1.414c-.956.139-1.619 1.027-1.48 1.983.055.381.235.733.51 1.002l7.042 6.863-1.662 9.692c-.163.953.477 1.857 1.43 2.02.379.065.769.003 1.109-.176l8.7-4.575 8.7 4.575c.856.45 1.914.12 2.363-.735.179-.34.241-.73.176-1.109l-1.662-9.692 7.042-6.863c.692-.675.706-1.783.032-2.475-.269-.276-.621-.455-1.002-.51zm.557 9.4c-.412.402-.599.982-.5 1.549l1.218 7.1-6.379-3.353c-.51-.268-1.119-.268-1.629 0l-6.378 3.353 1.218-7.1c.099-.567-.088-1.147-.5-1.549l-5.161-5.03 7.132-1.036c.57-.083 1.063-.441 1.317-.958l3.184-6.47 3.189 6.463c.255.517.748.875 1.318.958l7.132 1.036z"/></g></svg>