<?xml version="1.0"?>
<svg xmlns="http://www.w3.org/2000/svg" viewBox="0 0 74 74" width="512" height="512"><g id="Numbers"><text transform="translate(31.995 -638.544)" font-size="18" fill="red" font-family="ArialMT, Arial">4<tspan x="-5.005" y="124">14</tspan><tspan x="-5.005" y="248">24</tspan><tspan x="-5.005" y="372">34</tspan><tspan x="-5.005" y="496">44</tspan><tspan x="-5.005" y="620">54</tspan><tspan x="-5.005" y="744">64</tspan><tspan x="-5.005" y="868">74</tspan><tspan x="-5.005" y="992">84</tspan><tspan x="-5.005" y="1116">94</tspan><tspan x="-10.011" y="1240">104</tspan><tspan x="-9.343" y="1364" letter-spacing="-0.074em">1</tspan><tspan x="-0.668" y="1364">14</tspan><tspan x="-10.011" y="1488">124</tspan><tspan x="-10.011" y="1612">134</tspan><tspan x="-10.011" y="1736">144</tspan><tspan x="-10.011" y="1860">154</tspan><tspan x="-10.011" y="1984">164</tspan><tspan x="-10.011" y="2108">174</tspan><tspan x="-10.011" y="2232">184</tspan><tspan x="-10.011" y="2356">194</tspan><tspan x="-10.011" y="2480">204</tspan><tspan x="-10.011" y="2604">214</tspan><tspan x="-10.011" y="2728">224</tspan><tspan x="-10.011" y="2852">234</tspan><tspan x="-10.011" y="2976">244</tspan><tspan x="-10.011" y="3100">254</tspan><tspan x="-10.011" y="3224">264</tspan><tspan x="-10.011" y="3348">274</tspan><tspan x="-10.011" y="3472">284</tspan><tspan x="-10.011" y="3596">294</tspan></text></g><g id="_2_PT" data-name="2 PT"><path d="M14,72H7a1,1,0,0,1-1-1V25H8V70h5V25h2V71A1,1,0,0,1,14,72Z"/><path d="M15,14H13V4H8V14H6V3A1,1,0,0,1,7,2h7a1,1,0,0,1,1,1Z"/><path d="M16,26H5a3,3,0,0,1-3-3V16a3,3,0,0,1,3-3H16a3,3,0,0,1,3,3v7A3,3,0,0,1,16,26ZM5,15a1,1,0,0,0-1,1v7a1,1,0,0,0,1,1H16a1,1,0,0,0,1-1V16a1,1,0,0,0-1-1Z"/><path d="M40.5,72h-7a1,1,0,0,1-1-1V57h2V70h5V57h2V71A1,1,0,0,1,40.5,72Z"/><path d="M41.5,46h-2V4h-5V46h-2V3a1,1,0,0,1,1-1h7a1,1,0,0,1,1,1Z"/><path d="M42.5,58h-11a3,3,0,0,1-3-3V48a3,3,0,0,1,3-3h11a3,3,0,0,1,3,3v7A3,3,0,0,1,42.5,58Zm-11-11a1,1,0,0,0-1,1v7a1,1,0,0,0,1,1h11a1,1,0,0,0,1-1V48a1,1,0,0,0-1-1Z"/><path d="M67,72H60a1,1,0,0,1-1-1V40h2V70h5V40h2V71A1,1,0,0,1,67,72Z"/><path d="M68,29H66V4H61V29H59V3a1,1,0,0,1,1-1h7a1,1,0,0,1,1,1Z"/><path d="M69,41H58a3,3,0,0,1-3-3V31a3,3,0,0,1,3-3H69a3,3,0,0,1,3,3v7A3,3,0,0,1,69,41ZM58,30a1,1,0,0,0-1,1v7a1,1,0,0,0,1,1H69a1,1,0,0,0,1-1V31a1,1,0,0,0-1-1Z"/></g></svg>
